:SAMPLES-PER-SECOND 30
:FULLY-SPECIFIED
:DEGREES
551
root  -24.2174 34.6497 -5.39162 -172.357 52.7067 -178.349
RightUpLeg  -14.3891 -3.63339 -0.570061
RightLeg  10.9308 8.37674 1.06343
RightFoot  5.36268 -0.0206982 0.932244
RightToes  -36.5394 -0.191445 -0.294751
Spine  0.599608 2.52425 0.0128818
Spine1  1.14137 5.33384 0.609266
HEad  -66.0346 -20.1065 2.61383
LeftShoulder1  -1.94126e-019 -3.10601e-018 -2.51263e-017
LeftArm  -0.609064 15.7578 -83.0727
LeftForeArm  30.3252 -21.4798 -3.61888
LeftHand  -0.402387 -1.11838 7.32083
RightShoulder  -4.96962e-017 0 -2.36833e-017
RightArm  8.53332 1.99845 78.9824
RightForeArm  42.1273 38.2968 6.21899
RightHand  0.101599 -5.97512 -21.8285
LeftUpLeg  -15.3033 -0.0915622 -0.57598
LeftLeg  19.5026 14.0696 3.93791
LeftFoot  -1.41343 -0.00421557 -0.180223
LeftToes  -17.5278 1.34695e-006 1.12385e-007
552
root  -24.4277 34.6209 -5.27395 -171.279 51.6591 -178.122
RightUpLeg  -15.7526 -4.49588 -0.351432
RightLeg  11.3234 8.29801 1.11106
RightFoot  5.74063 -0.0255569 0.980615
RightToes  -36.7022 -0.19269 -0.295746
Spine  0.796176 2.70243 -0.0643337
Spine1  1.53543 5.68391 0.459437
HEad  -67.0996 -21.7289 3.80882
LeftShoulder1  -1.94126e-019 -3.10601e-018 -2.51263e-017
LeftArm  -1.80394 15.432 -82.9823
LeftForeArm  30.4091 -22.9714 -3.79783
LeftHand  -0.404726 -1.12127 7.35962
RightShoulder  -4.96962e-017 0 -2.36833e-017
RightArm  4.20302 -2.56351 77.1984
RightForeArm  40.119 50.1909 10.3265
RightHand  0.0217851 -5.54624 -22.1888
LeftUpLeg  -17.0401 -0.34859 -0.429268
LeftLeg  20.0813 13.2851 3.86623
LeftFoot  -1.08341 -0.00226899 -0.0784611
LeftToes  -17.9008 1.34695e-006 1.12385e-007
553
root  -24.6218 34.6071 -5.15266 -170.486 50.1765 -178.212
RightUpLeg  -16.8565 -4.71469 -0.355803
RightLeg  11.4346 7.18786 0.977384
RightFoot  5.95887 -0.0216782 0.903435
RightToes  -35.2437 -0.181646 -0.286709
Spine  0.974909 2.2209 -0.135628
Spine1  1.86725 4.74642 0.283006
HEad  -66.756 -21.4913 3.64607
LeftShoulder1  -1.94126e-019 -3.10601e-018 -2.51263e-017
LeftArm  -2.65035 16.1994 -82.4092
LeftForeArm  27.5995 -24.6505 -3.97333
LeftHand  -0.402628 -0.78173 7.69598
RightShoulder  -4.96962e-017 0 -2.36833e-017
RightArm  -1.5576 -5.463 77.068
RightForeArm  43.9941 64.0919 18.7586
RightHand  -0.0603595 -5.07372 -17.7997
LeftUpLeg  -18.5699 -0.706761 -0.43575
LeftLeg  20.207 12.227 3.59259
LeftFoot  -0.40027 -0.000210082 0.101316
LeftToes  -18.6856 1.34695e-006 1.12385e-007
554
root  -24.7967 34.5929 -4.99628 -169.92 49.3954 -178.31
RightUpLeg  -17.8429 -3.98274 -0.432638
RightLeg  11.5808 5.81177 0.806058
RightFoot  6.14651 -0.0156177 0.794562
RightToes  -34.2051 -0.173924 -0.280104
Spine  1.27622 1.68979 -0.10109
Spine1  2.43166 3.76117 0.265818
HEad  -65.4466 -20.1354 2.30625
LeftShoulder1  -1.94126e-019 -3.10601e-018 -2.51263e-017
LeftArm  -3.94487 17.1229 -82.0882
LeftForeArm  25.1709 -25.4576 -4.11518
LeftHand  -0.40484 -0.409801 8.201
RightShoulder  -4.96962e-017 0 -2.36833e-017
RightArm  -5.75017 -4.66238 78.3519
RightForeArm  56.134 73.8422 33.2337
RightHand  0.101428 -6.35203 -14.4329
LeftUpLeg  -19.7581 -0.686009 -0.432577
LeftLeg  20.2523 11.414 3.36708
LeftFoot  0.367178 -0.00037843 0.279752
LeftToes  -19.9129 1.34695e-006 1.12385e-007
555
root  -24.9925 34.5688 -4.82038 -169.291 49.7018 -178.381
RightUpLeg  -19.0629 -2.92871 -0.532828
RightLeg  11.6994 5.19703 0.732
RightFoot  6.69943 -0.0172465 0.795218
RightToes  -33.1768 -0.166398 -0.273428
Spine  1.61086 1.6512 -0.11289
Spine1  3.0663 3.7824 0.144459
HEad  -64.3634 -19.1287 0.768706
LeftShoulder1  -1.94126e-019 -3.10601e-018 -2.51263e-017
LeftArm  -4.15058 17.2187 -82.0076
LeftForeArm  24.3726 -25.0851 -4.07684
LeftHand  -0.410324 -0.301773 8.45935
RightShoulder  -4.96962e-017 0 -2.36833e-017
RightArm  -8.24377 -0.873979 80.4699
RightForeArm  62.7851 76.5145 42.0201
RightHand  0.224986 -7.43932 -13.9635
LeftUpLeg  -20.9442 -0.532526 -0.474241
LeftLeg  20.3852 11.4752 3.41353
LeftFoot  1.31785 -0.00386699 0.497811
LeftToes  -19.2397 1.34695e-006 1.12385e-007
556
root  -25.2067 34.5361 -4.61666 -168.032 50.7298 -178.336
RightUpLeg  -20.952 -2.39253 -0.433746
RightLeg  11.6847 5.80467 0.81577
RightFoot  7.92568 -0.0348547 1.00123
RightToes  -32.5338 -0.165196 -0.272378
Spine  1.7159 2.10053 -0.274965
Spine1  3.24885 4.75044 -0.220255
HEad  -64.2406 -18.823 0.15073
LeftShoulder1  -1.94126e-019 -3.10601e-018 -2.51263e-017
LeftArm  -3.3747 16.6354 -81.994
LeftForeArm  25.2899 -23.5919 -3.8205
LeftHand  -0.406904 -0.439762 8.20268
RightShoulder  -4.96962e-017 0 -2.36833e-017
RightArm  -7.73484 2.30865 81.5468
RightForeArm  56.435 74.6135 35.6604
RightHand  0.408413 -8.6799 -15.1842
LeftUpLeg  -22.7115 -0.617683 -0.402785
LeftLeg  20.6735 12.4384 3.76268
LeftFoot  2.15111 -0.0106539 0.729045
LeftToes  -16.6544 1.34695e-006 1.12385e-007
557
root  -25.421 34.4956 -4.40237 -166.506 51.8182 -178.214
RightUpLeg  -22.9778 -3.02224 -0.0128392
RightLeg  11.4847 7.49784 1.02594
RightFoot  8.98888 -0.0696949 1.37614
RightToes  -32.6798 -0.166882 -0.2739
Spine  1.81327 2.585 -0.469221
Spine1  3.42229 5.73509 -0.598863
HEad  -65.4678 -18.7954 0.038688
LeftShoulder1  -1.94126e-019 -3.10601e-018 -2.51263e-017
LeftArm  -2.70696 15.6179 -82.0655
LeftForeArm  27.0966 -21.5394 -3.48692
LeftHand  -0.408066 -0.868591 7.69755
RightShoulder  -4.96962e-017 0 -2.36833e-017
RightArm  -4.67988 3.77488 81.2587
RightForeArm  44.7618 68.8582 24.5437
RightHand  0.672491 -10.4675 -15.8912
LeftUpLeg  -24.7416 -0.814764 -0.213011
LeftLeg  21.1873 13.568 4.22881
LeftFoot  2.50644 -0.0162948 0.873579
LeftToes  -15.7301 1.34695e-006 1.12385e-007
558
root  -25.5871 34.4741 -4.21328 -165.426 52.5108 -178.152
RightUpLeg  -24.2478 -3.95035 0.44641
RightLeg  10.889 9.13187 1.15182
RightFoot  9.86307 -0.111036 1.76788
RightToes  -33.6411 -0.168771 -0.275586
Spine  2.03058 2.88923 -0.642737
Spine1  3.83445 6.33691 -0.93327
HEad  -67.185 -18.5353 0.126619
LeftShoulder1  -1.94126e-019 -3.10601e-018 -2.51263e-017
LeftArm  -3.39548 14.4305 -82.4098
LeftForeArm  29.0849 -19.0087 -3.09995
LeftHand  -0.408609 -1.11882 7.43162
RightShoulder  -4.96962e-017 0 -2.36833e-017
RightArm  -2.55356 6.86989 81.8053
RightForeArm  37.5118 55.0732 12.8342
RightHand  0.326838 -7.86194 -16.2219
LeftUpLeg  -26.0815 -0.449239 -0.149158
LeftLeg  21.1734 13.8733 4.31818
LeftFoot  2.81685 -0.0193731 0.968159
LeftToes  -15.6946 1.34695e-006 1.12385e-007
559
root  -25.7103 34.4594 -4.03321 -164.743 52.53 -178.108
RightUpLeg  -25.0554 -4.64369 0.845036
RightLeg  10.4713 9.94861 1.18072
RightFoot  10.4005 -0.139467 2.00893
RightToes  -33.4217 -0.168179 -0.27503
Spine  2.28818 3.01249 -0.722422
Spine1  4.3168 6.65294 -1.15932
HEad  -68.3485 -18.2822 -0.241254
LeftShoulder1  -1.94126e-019 -3.10601e-018 -2.51263e-017
LeftArm  -5.20331 13.4951 -82.9026
LeftForeArm  30.6556 -17.0857 -2.84676
LeftHand  -0.430507 -1.14177 7.79737
RightShoulder  -4.96962e-017 0 -2.36833e-017
RightArm  0.492394 13.4535 83.5529
RightForeArm  45.6218 32.5197 4.55738
RightHand  -0.601642 -2.53628 -24.1461
LeftUpLeg  -27.0269 -0.0178591 -0.089072
LeftLeg  21.0518 13.4669 4.16349
LeftFoot  3.20612 -0.0222652 1.05036
LeftToes  -16.3991 1.34695e-006 1.12385e-007
560
root  -25.8485 34.4011 -3.85593 -163.836 51.7252 -178.12
RightUpLeg  -26.5014 -5.16116 1.11935
RightLeg  10.9418 9.87412 1.25378
RightFoot  10.6148 -0.149967 2.08962
RightToes  -32.6071 -0.16228 -0.269671
Spine  2.54029 3.53824 -0.617097
Spine1  4.77873 8.07603 -1.21939
HEad  -69.6451 -19.1538 -0.533114
LeftShoulder1  -1.94126e-019 -3.10601e-018 -2.51263e-017
LeftArm  -5.67478 12.4314 -83.5914
LeftForeArm  30.1911 -16.968 -2.87068
LeftHand  -0.428779 -0.903421 8.04087
RightShoulder  -4.96962e-017 0 -2.36833e-017
RightArm  5.68774 15.4611 81.5691
RightForeArm  52.5966 26.2379 2.87912
RightHand  -0.256221 -4.52028 -33.7721
LeftUpLeg  -28.792 0.0417586 -0.0360788
LeftLeg  21.7605 12.6177 4.07568
LeftFoot  3.30245 -0.0217212 1.07032
LeftToes  -16.7296 1.34695e-006 1.12385e-007
561
root  -25.9755 34.3958 -3.65246 -162.247 50.4045 -177.527
RightUpLeg  -27.4001 -5.42254 1.76142
RightLeg  10.0356 9.11808 1.01308
RightFoot  11.2897 -0.149627 1.99554
RightToes  -31.1501 -0.15192 -0.259879
Spine  2.57509 3.67904 -0.633104
Spine1  4.90631 7.99026 -0.995499
HEad  -71.6293 -21.3651 0.988129
LeftShoulder1  -1.94126e-019 -3.10601e-018 -2.51263e-017
LeftArm  -5.15203 11.8821 -83.6392
LeftForeArm  29.7285 -18.215 -3.06007
LeftHand  -0.425041 -0.858023 8.02591
RightShoulder  -4.96962e-017 0 -2.36833e-017
RightArm  3.16384 11.2697 77.9338
RightForeArm  46.1331 40.1558 6.47047
RightHand  -0.47568 -3.74135 -32.8888
LeftUpLeg  -30.7194 0.328739 0.366247
LeftLeg  22.1537 11.2011 3.70954
LeftFoot  3.56209 -0.015173 0.988744
LeftToes  -16.8762 1.34695e-006 1.12385e-007
